#N canvas 982 87 938 993 10;
#X obj 171 155 bng 15 250 50 0 empty empty empty 17 7 0 10 -262144
-1 -1;
#X obj 164 266 bng 15 250 50 0 empty empty empty 17 7 0 10 -262144
-1 -1;
#X obj 189 266 bng 15 250 50 0 empty empty empty 17 7 0 10 -262144
-1 -1;
#X obj 216 267 bng 15 250 50 0 empty empty empty 17 7 0 10 -262144
-1 -1;
#X floatatom 252 266 5 0 0 0 - - -, f 5;
#X obj 625 5 bng 15 250 50 0 empty empty empty 17 7 0 10 -262144 -1
-1;
#X obj 527 361 makenote;
#X msg 586 312 127;
#X floatatom 527 407 5 0 0 0 - - -, f 5;
#X floatatom 586 407 5 0 0 0 - - -, f 5;
#X obj 557 458 noteout;
#X obj 44 156 bng 15 250 50 0 empty empty empty 17 7 0 10 -262144 -1
-1;
#X obj 37 267 bng 15 250 50 0 empty empty empty 17 7 0 10 -262144 -1
-1;
#X obj 62 267 bng 15 250 50 0 empty empty empty 17 7 0 10 -262144 -1
-1;
#X obj 89 268 bng 15 250 50 0 empty empty empty 17 7 0 10 -262144 -1
-1;
#X floatatom 125 267 5 0 0 0 - - -, f 5;
#X obj 72 114 hsl 128 15 3 64 0 0 empty empty empty -2 -8 0 10 -262144
-1 -1 900 1;
#X floatatom 99 152 5 0 0 0 - - -, f 5;
#X msg 633 312 320;
#X msg 625 407 2;
#X msg 95 309 48;
#X msg 230 126 6;
#X obj 309 266 bng 15 250 50 0 empty empty empty 17 7 0 10 -262144
-1 -1;
#X obj 334 266 bng 15 250 50 0 empty empty empty 17 7 0 10 -262144
-1 -1;
#X obj 361 267 bng 15 250 50 0 empty empty empty 17 7 0 10 -262144
-1 -1;
#X floatatom 397 266 5 0 0 0 - - -, f 5;
#X obj 318 135 metro 175;
#X obj 375 77 hsl 128 15 50 500 0 0 empty empty empty -2 -8 0 10 -262144
-1 -1 6400 1;
#X floatatom 395 142 5 0 0 0 - - -, f 5;
#X msg 222 308 72;
#X msg 367 312 53;
#X obj 166 209 euclid 17 9;
#X obj 39 210 euclid 9 5;
#X obj 310 209 euclid 23 11;
#X connect 0 0 31 0;
#X connect 1 0 29 0;
#X connect 5 0 7 0;
#X connect 5 0 19 0;
#X connect 5 0 18 0;
#X connect 5 0 26 0;
#X connect 6 0 8 0;
#X connect 6 1 9 0;
#X connect 7 0 6 1;
#X connect 8 0 10 0;
#X connect 9 0 10 1;
#X connect 11 0 32 0;
#X connect 12 0 20 0;
#X connect 16 0 17 0;
#X connect 16 0 32 1;
#X connect 18 0 6 2;
#X connect 19 0 10 2;
#X connect 20 0 6 0;
#X connect 21 0 31 2;
#X connect 22 0 30 0;
#X connect 26 0 31 0;
#X connect 26 0 32 0;
#X connect 26 0 33 0;
#X connect 27 0 26 1;
#X connect 27 0 28 0;
#X connect 29 0 6 0;
#X connect 30 0 6 0;
#X connect 31 0 1 0;
#X connect 31 1 2 0;
#X connect 31 2 3 0;
#X connect 31 3 4 0;
#X connect 32 0 12 0;
#X connect 32 1 13 0;
#X connect 32 2 14 0;
#X connect 32 3 15 0;
#X connect 33 0 22 0;
#X connect 33 1 23 0;
#X connect 33 2 24 0;
#X connect 33 3 25 0;
