#N canvas 957 89 938 991 10;
#X obj 196 19 bng 15 250 50 0 empty empty empty 17 7 0 10 -262144 -1
-1;
#X floatatom 120 212 5 0 0 0 - - -, f 5;
#X obj 120 262 makenote;
#X obj 121 68 metro 2000;
#X msg 179 213 127;
#X msg 226 213 320;
#X msg 218 308 2;
#X floatatom 120 308 5 0 0 0 - - -, f 5;
#X floatatom 179 308 5 0 0 0 - - -, f 5;
#X obj 150 359 noteout;
#X msg 129 90 2;
#X msg 154 126 40;
#X obj 120 179 counter;
#X connect 0 0 3 0;
#X connect 0 0 4 0;
#X connect 0 0 6 0;
#X connect 0 0 5 0;
#X connect 1 0 2 0;
#X connect 2 0 7 0;
#X connect 2 1 8 0;
#X connect 3 0 12 0;
#X connect 4 0 2 1;
#X connect 5 0 2 2;
#X connect 6 0 9 2;
#X connect 7 0 9 0;
#X connect 8 0 9 1;
#X connect 10 0 12 1;
#X connect 11 0 12 2;
#X connect 12 0 1 0;
